<?xml version="1.0" encoding="UTF-8" standalone="no"?>
<svg
   version="1.1"
   viewBox="0.00 0.00 500.00 500.00"
   id="svg12"
   sodipodi:docname="Yellow Group icon 2.svg"
   inkscape:version="1.3 (0e150ed6c4, 2023-07-21)"
   xmlns:inkscape="http://www.inkscape.org/namespaces/inkscape"
   xmlns:sodipodi="http://sodipodi.sourceforge.net/DTD/sodipodi-0.dtd"
   xmlns="http://www.w3.org/2000/svg"
   xmlns:svg="http://www.w3.org/2000/svg">
  <defs
     id="defs12" />
  <sodipodi:namedview
     id="namedview12"
     pagecolor="#505050"
     bordercolor="#eeeeee"
     borderopacity="1"
     inkscape:showpageshadow="0"
     inkscape:pageopacity="0"
     inkscape:pagecheckerboard="0"
     inkscape:deskcolor="#505050"
     inkscape:zoom="1.626"
     inkscape:cx="250"
     inkscape:cy="250"
     inkscape:window-width="1920"
     inkscape:window-height="1009"
     inkscape:window-x="-8"
     inkscape:window-y="-8"
     inkscape:window-maximized="1"
     inkscape:current-layer="svg12" />
  <g
     stroke-width="2"
     fill="none"
     stroke-linecap="butt"
     id="g3"
     transform="matrix(1.8219525,0,0,1.7678982,-200.05362,-190.08172)">
    <path
       stroke="#80702e"
       vector-effect="non-scaling-stroke"
       d="m 204.79,215.34 q -8.19,-2.97 -9.52,4.76"
       id="path1" />
    <path
       stroke="#80702e"
       vector-effect="non-scaling-stroke"
       d="m 300.01,221.13 -6.89,-3.63"
       id="path2" />
    <path
       stroke="#80702e"
       vector-effect="non-scaling-stroke"
       d="m 282.61,246.46 q -0.82,-1.65 -2.26,-1.77 -0.54,-0.04 -0.8,0.42 -2.36,4.14 -2.98,8.91"
       id="path3" />
  </g>
  <path
     fill="#ffdf5c"
     d="m 173.06403,190.61749 q -14.92179,-5.25066 -17.34499,8.41519 -2.96978,1.92701 -5.24722,-1.32592 c -6.50437,-9.28147 -13.84684,-21.51532 -21.73589,-28.05655 -14.72138,-12.21617 -31.319367,-12.79958 -49.903282,-14.14318 -6.686566,-0.47734 -13.172717,-2.89936 -16.707305,-7.83179 Q 37.146374,112.91836 12.258503,78.090763 8.1591096,72.362773 7.6671824,67.783917 C 6.2460595,54.913618 17.924775,43.616748 28.346343,36.721945 Q 46.675186,24.611842 65.131565,12.643171 C 74.204888,6.7560696 78.231403,3.4147419 88.106386,6.7207116 q 7.597542,2.5457735 11.569399,7.7610734 29.278775,38.610897 50.249445,68.894994 9.2373,13.329953 3.53459,27.826721 c -7.87083,20.03028 -8.07125,35.0751 2.75115,54.09768 5.37476,9.44058 13.22738,16.90111 16.85306,25.31631 z M 87.473986,23.078367 A 3.8078808,3.6949073 0 0 0 82.16263,22.215809 l -0.08891,0.0617 a 3.8078808,3.6949073 0 0 0 -0.888931,5.1536 L 133.70457,98.87665 a 3.8078808,3.6949073 0 0 0 5.31136,0.862558 l 0.0889,-0.0617 a 3.8078808,3.6949073 0 0 0 0.88893,-5.1536 z M 120.93797,117.7624 a 3.0973193,3.005427 0 0 0 3.60747,-2.33363 q 0.747,-3.60651 -1.54866,-6.93016 C 105.1963,82.66962 85.26414,61.207335 67.518323,33.009358 Q 65.71459,30.127684 63.163856,29.703389 a 3.5163684,3.4120436 0 0 0 -3.771442,4.844041 q 4.645979,9.281466 10.986374,18.227031 c 12.371058,17.519871 25.434457,34.597768 37.550442,52.259069 2.8969,4.24296 7.52466,11.73885 13.00874,12.72887 z M 52.250361,69.410383 q 20.260112,32.051997 46.368691,62.053227 2.623608,3.02311 5.702708,0.4243 l 0.52837,-0.45966 a 3.3159536,3.2175748 0 0 0 0.54659,-4.29599 Q 85.66497,99.782875 66.625566,73.28208 C 59.866122,63.859183 54.290947,53.181077 43.81472,44.712845 a 2.0588063,1.997725 0 0 0 -3.006221,0.406616 c -1.457562,2.033083 -1.111391,4.950115 0.346171,7.142309 q 5.648052,8.503591 11.095691,17.148613 z M 30.834584,51.593858 a 1.3797788,2.4945949 82.1603 0 0 -2.675173,-1.014773 1.3797788,2.4945949 82.1603 0 0 -2.264869,1.714154 1.3797788,2.4945949 82.1603 0 0 2.675173,1.014773 1.3797788,2.4945949 82.1603 0 0 2.264869,-1.714154 z m 47.852308,90.512502 4.081173,-2.72256 a 1.9494892,1.8916511 0 0 0 0.510147,-2.63417 L 49.134822,88.556721 A 36.690504,3.8787423 54.672043 0 0 24.702438,60.765361 l -0.838098,0.565727 a 36.690504,3.8787423 54.672043 0 0 17.982672,32.087353 l 34.12517,48.192909 a 1.9494892,1.8916511 0 0 0 2.71471,0.49501 z"
     id="path4"
     style="stroke-width:1.79472" />
  <path
     fill="#ffdf5c"
     d="m 346.55035,200.85362 -12.55325,-6.41747 q 22.59221,-30.17803 44.85647,-58.39368 6.17642,-7.81411 4.26337,-15.84037 c -2.45964,-10.39524 -5.06503,-16.01716 2.47785,-25.864352 19.85929,-25.811314 37.6962,-51.834776 60.96253,-75.082638 q 2.09525,-2.08612 3.13376,-1.096097 1.34825,1.290566 0.23686,2.793279 -22.4829,30.443208 -43.87262,60.780342 c -7.34247,10.430599 -12.86299,20.313146 1.33003,27.897436 12.06132,6.43515 16.7073,-0.19447 24.3595,-9.31683 q 23.75826,-28.321725 44.36454,-61.133917 1.62154,-2.581131 2.56896,0.300543 l 0.16397,0.530369 q 0.87454,2.61649 -0.23685,5.162263 -2.13169,4.844041 -6.75944,11.897955 -31.84773,48.475767 -44.18235,65.306157 c -6.55903,8.96325 -20.38765,8.98093 -30.39017,10.57204 a 7.8323623,7.5508854 2.2832028 0 0 -5.17435,3.19989 z"
     id="path5"
     style="stroke-width:1.79472" />
  <path
     fill="#000000"
     d="m 300.67359,140.28542 q -7.1785,3.42973 -15.21331,3.78331 -1.65797,0.0707 -0.25507,-0.79556 c 3.80788,-2.40434 8.23522,-4.15456 11.35076,-6.70033 q 10.0754,-8.23841 13.68287,-20.75513 0.40083,-1.44967 0.8381,0 2.66005,9.087 -2.62362,16.95415 -0.60124,0.9193 0.49193,1.14913 c 14.90357,2.95239 28.84151,-4.77333 30.49949,-18.72204 2.69649,-22.682137 -17.01704,-31.026617 -36.65769,-28.88746 q -3.49815,0.371259 -6.0671,0.194469 -1.05673,-0.07072 -1.00207,-1.096097 c 1.53044,-28.516198 -19.80463,-43.932271 -47.57118,-42.093657 -19.58599,1.290566 -34.28915,12.446004 -38.77115,30.708392 -2.45964,10.041662 -1.91305,22.805888 5.41119,31.150363 q 0.0729,0.0707 0,0.14144 l -0.34617,0.28286 q -0.14575,0.14143 -0.30973,0 -10.11183,-8.538948 -10.96815,-21.586037 a 1.8949795,1.8561473 1.9813909 0 0 -2.05881,-1.732541 q -19.29448,1.467356 -23.84936,17.272366 c -5.86668,20.242432 12.09777,29.612292 29.84358,29.576942 q 0.89276,0 1.22071,0.79555 c 4.0994,10.14774 4.55488,17.90881 4.35447,27.61457 q -0.0182,1.14913 1.12961,0.84859 c 24.03155,-6.59426 56.11614,-7.77875 76.55844,8.4152 q 3.82611,3.04078 -0.87453,1.53807 c -26.81914,-8.55663 -59.341,-8.43288 -85.92328,3.30597 a 1.4029034,1.3612816 0 0 1 -1.93127,-1.55575 q 3.89898,-15.71662 0,-31.3802 -0.20042,-0.81323 -1.05674,-0.95466 C 182.88436,135.01709 169.6752,128.193 167.92613,108.72844 166.10417,88.291536 181.11706,75.385879 200.99456,73.971561 q 0.96564,-0.07072 1.5851,-0.813234 c 1.31181,-1.591108 0.94742,-4.136882 1.34825,-5.692632 q 6.59547,-25.157192 32.8498,-31.945921 6.63191,-1.714861 20.46053,-1.21985 33.72434,1.184492 45.38484,30.425529 c 1.2207,3.058464 2.04058,7.336777 3.09731,11.014006 a 1.2389277,1.2021708 0 0 0 1.22071,0.883949 c 18.71146,-0.229827 39.13554,7.81411 41.48586,28.021182 q 3.9172,33.37792 -28.22204,37.74463 c -3.2613,0.44198 -7.76152,-0.28286 -11.60584,-0.0177 q -1.31181,0.0884 -1.54866,1.36128 l -3.69856,20.57834 a 0.26872678,0.28767003 54.850898 0 1 -0.54659,0.0354 q -3.27951,-11.61509 -1.23893,-23.40697 0.21864,-1.1845 -0.89275,-0.65413 z"
     id="path6"
     style="fill:#000000;stroke:#ffffff;stroke-width:3.58944;stroke-dasharray:none" />
  <path
     fill="#000000"
     d="m 333.9971,194.43615 12.55325,6.41747 q 72.3133,43.066 87.63592,122.44463 c 3.17019,16.37074 3.11554,35.05742 2.8969,52.36514 -0.0911,7.51357 -5.28366,6.96552 -11.73337,6.96552 q -172.86686,-0.12375 -345.733713,-0.12375 -4.463783,0 -4.828174,-4.2076 C 69.54069,315.94379 89.254216,260.20196 138.84776,218.74475 q 5.72093,-4.77333 18.14665,-13.47139 0.78344,-0.54805 0.9292,-1.46735 0.41905,-2.63417 -2.20457,-4.77333 2.4232,-13.66585 17.34499,-8.41519 c 1.5851,2.93471 3.33418,4.04848 6.74123,2.59881 q 77.56051,-32.91827 154.19184,1.21985 z m -41.92313,55.44129 c 2.4232,-2.24524 5.02859,-9.05164 6.01244,-11.66813 q 0.38261,-1.00771 -0.6559,-1.34361 -17.05347,-5.5512 -34.99971,-6.82408 a 1.0931715,1.0607389 0 0 0 -1.16605,1.06074 l 0.0911,51.76406 a 0.72878101,0.70715929 0 0 0 1.33003,0.40661 q 12.7901,-18.01488 29.38809,-33.39559 z M 249.5496,229.67036 a 0.54658576,0.53036947 0 0 0 -0.6559,-0.53037 l -36.36618,7.26606 a 0.54658576,0.53036947 0 0 0 -0.32795,0.84859 l 36.34795,46.44269 a 0.54658576,0.53036947 0 0 0 0.98386,-0.31822 z m 54.29418,29.32943 q -12.60791,24.29092 -22.7744,50.20831 -0.98386,2.52809 -0.21864,4.15456 1.05674,2.20987 4.04474,2.81096 0.71056,0.14143 1.23893,-0.37126 l 54.00267,-52.50658 a 1.414347,1.3678034 11.318 0 0 -0.0729,-1.99772 q -10.71308,-9.17539 -23.1388,-16.03484 -0.69234,-0.38894 -1.43934,-0.12375 -0.49193,0.19447 -0.63768,0.49501 -1.494,-2.91703 -4.11762,-3.12918 -0.98385,-0.0707 -1.45756,0.74252 -4.29981,7.3191 -5.42942,15.75197 z m -119.17391,-8.15001 -13.42779,10.11238 a 1.6033182,1.5557504 0 0 0 -0.14576,2.31594 l 53.98446,52.47122 a 1.8766111,1.8209352 0 0 0 2.8969,-2.29826 q -20.58806,-29.62998 -40.92105,-60.51516 -0.49193,-0.7602 -0.52837,-0.99002 a 1.3310531,1.1252574 67.337683 0 0 -1.85839,-1.0961 z m -21.88165,20.8612 a 2.4414164,2.3689836 0 0 0 -3.75322,0.35358 l -18.07377,26.12953 a 2.4414164,2.3689836 0 0 0 1.09317,3.51812 l 69.65324,28.14494 a 2.4414164,2.3689836 0 0 0 3.04267,-1.0077 l 1.63975,-2.74024 a 2.4414164,2.3689836 0 0 0 -0.38261,-2.864 z m 205.88063,30.10731 a 2.6600507,2.5811314 0 0 0 1.18427,-3.81866 l -17.81869,-25.829 a 2.6600507,2.5811314 0 0 0 -4.0994,-0.38894 l -52.78196,51.51656 a 2.6600507,2.5811314 0 0 0 -0.47371,3.0231 l 1.20249,2.22756 a 2.6600507,2.5811314 0 0 0 3.37061,1.18449 z m -230.93248,10.60738 a 2.6236116,2.5457735 0 0 0 -3.57102,1.8563 l -6.39506,30.88518 a 2.6236116,2.5457735 0 0 0 2.56896,3.04079 l 74.95512,-0.0177 a 2.6236116,2.5457735 0 0 0 2.55074,-1.94469 l 0.78344,-3.07614 a 2.6236116,2.5457735 0 0 0 -1.54866,-2.95239 z m 242.84805,35.71155 a 2.5871726,2.5104155 0 0 0 2.53252,-2.98775 l -6.21286,-30.83214 a 2.5871726,2.5104155 0 0 0 -3.51637,-1.83862 l -69.32529,27.80904 a 2.5871726,2.5104155 0 0 0 -1.56688,2.70489 l 0.49193,3.05846 a 2.5871726,2.5104155 0 0 0 2.56895,2.12148 z m -175.34471,11.65045 a 0.47370765,0.45965354 0 0 0 -0.4737,-0.45966 H 86.484848 a 0.47370765,0.45965354 0 0 0 -0.473707,0.45966 v 11.27919 a 0.47370765,0.45965354 0 0 0 0.473707,0.45965 H 204.76601 a 0.47370765,0.45965354 0 0 0 0.4737,-0.45965 z m 219.07157,11.57973 a 0.58302481,0.56572744 0 0 0 0.58303,-0.56573 l -0.0182,-10.74882 a 0.58302481,0.56572744 0 0 0 -0.58303,-0.56572 l -123.51016,0.0707 a 0.58302481,0.56572744 0 0 0 -0.5648,0.4243 l -3.00622,10.85489 a 0.58302481,0.56572744 0 0 0 0.5648,0.70716 z M 236.04893,359.57552 a 0.60124433,0.58340642 0 0 0 -0.49193,0.24751 l -7.92549,10.66042 a 0.60124433,0.58340642 0 0 0 0.47371,0.91931 l 40.57488,0.0354 a 0.60124433,0.58340642 0 0 0 0.47371,-0.93699 l -8.50852,-10.69578 a 0.60124433,0.58340642 0 0 0 -0.47371,-0.22983 z m 52.1625,-0.0354 -9.69279,-0.0354 a 1.6944158,1.6441454 0 0 0 -1.71263,1.64415 v 0.31822 a 6.3221749,6.0992493 0.03219776 0 0 6.30395,6.11693 h 0.43727 a 6.3221749,6.0992493 0.03219776 0 0 6.3404,-6.08157 v -0.31822 a 1.6944158,1.6441454 0 0 0 -1.6762,-1.64415 z m -65.99986,4.27284 a 4.809691,5.2825552 86.054429 0 0 -5.75756,-4.26594 4.809691,5.2825552 86.054429 0 0 -4.75584,5.30228 4.809691,5.2825552 86.054429 0 0 5.75755,4.26594 4.809691,5.2825552 86.054429 0 0 4.75585,-5.30228 z"
     id="path7"
     style="fill:#000000;stroke:#ffffff;stroke-width:3.58944;stroke-dasharray:none" />
  <path
     fill="#ffdf5c"
     d="m 314.84838,245.63448 q -3.69857,7.83179 -11.0046,13.36531 1.12961,-8.43287 5.42942,-15.75197 0.47371,-0.81324 1.45756,-0.74252 2.62362,0.21215 4.11762,3.12918 z"
     id="path8"
     style="stroke-width:1.79472" />
  <path
     fill="#ffdf5c"
     d="m 128.64483,450.9405 a 1.8219525,1.7678982 0 0 0 -3.42527,-1.0077 c -3.0791,5.85174 -18.36528,30.16034 -26.454752,16.14091 -3.115539,-5.40977 -1.494001,-14.6382 0.273293,-20.50762 a 1.7855135,1.7325403 0 0 0 -3.115539,-1.57343 c -4.718857,5.69263 -8.05303,12.44601 -15.632352,15.7343 q -0.76522,0.3359 -1.585099,0.10607 c -5.848468,-1.64415 -9.237299,-5.2153 -8.526738,-11.54438 0.947416,-8.45055 5.502297,-26.00578 16.379353,-27.50849 q 4.937492,-0.6718 8.380982,3.46508 a 2.3100815,2.3745519 82.80692 0 1 0.473708,1.96237 c -1.457562,6.31139 -9.638129,12.51671 -14.684938,14.77962 q -0.874537,0.38894 -1.275366,1.23753 -2.441417,5.16227 -2.605393,10.97865 a 2.617962,2.7131822 86.743941 0 0 4.390906,2.12148 c 10.093617,-7.81411 17.982671,-16.60057 22.482895,-28.62227 4.6642,-12.44601 11.78803,-36.22424 23.95867,-42.27045 q 0.69235,-0.3359 1.47579,-0.15911 7.47,1.7679 6.34039,8.60966 -1.00207,6.11693 -6.04888,14.28462 -6.13998,9.97095 -13.17272,19.37617 -6.61369,8.83949 -8.4903,14.30229 -3.53458,10.23613 -2.44141,21.44461 a 2.4394617,2.4963183 88.180555 0 0 1.74907,2.08612 q 2.20456,0.68948 4.13583,-1.44968 c 11.33255,-12.56975 20.35121,-25.33398 25.81707,-41.28042 3.60747,-10.519 10.84062,-29.34711 20.42409,-35.94137 q 3.735,-2.58113 7.98015,1.20217 c 8.05303,7.19534 -15.54125,36.66621 -20.31477,43.04832 -7.12383,9.52897 -9.01867,20.7728 -8.81825,32.14039 a 1.7293481,1.6278835 7.016395 0 0 0.9292,1.432 q 3.62568,1.82093 6.35861,-1.48504 10.03896,-12.14546 18.2924,-25.51077 2.66005,-4.29599 6.74123,-7.9909 6.77766,-6.15228 12.38927,-13.29459 a 1.8176122,1.8617891 81.86552 0 1 1.6762,-0.70716 c 11.42364,1.04306 10.05718,11.08472 9.3284,19.04026 a 1.4201839,1.344491 5.7787771 0 0 0.94741,1.41432 c 4.0994,1.3436 8.30811,-5.76335 9.54703,-8.02626 q 1.56688,-2.88167 4.70064,-1.69718 l 0.54659,0.21215 a 2.4596359,2.3866626 0 0 1 1.34824,3.19989 q -4.13583,8.83949 -7.37891,16.22931 -1.51222,3.46508 -0.32795,5.05619 2.00415,2.74024 4.50023,0.40661 8.3992,-7.9025 13.82862,-18.12095 a 3.990076,3.8716971 0 0 1 4.95571,-1.8563 l 0.4737,0.17679 a 2.489771,2.5537716 84.487609 0 1 1.45757,3.27062 q -4.46379,10.57203 -4.8464,21.93961 a 2.2045625,2.1391569 0 0 0 4.08118,1.18449 q 3.00622,-4.73796 5.92134,-10.13005 1.20249,-2.22755 1.80373,-6.5589 0.87454,-6.20533 5.66628,-11.1908 a 2.4414164,2.3689836 0 0 1 3.97185,2.66953 l -4.46378,8.71573 a 1.6215377,1.5734294 0 0 0 2.05881,2.15684 q 5.59339,-2.22755 9.10976,-7.00088 a 1.9312697,1.8739721 0 0 1 2.40498,-0.5834 l 0.41904,0.19447 a 1.0002826,1.0278612 72.245439 0 1 0.3644,1.52039 c -3.06088,3.92473 -9.05511,10.37756 -14.66672,9.40522 a 2.8604655,2.7756002 0 0 0 -3.29774,2.12147 c -1.27536,5.33906 -11.42364,19.80046 -18.56569,13.2946 -3.46171,-3.14686 -1.62154,-10.32453 -1.16605,-14.47909 a 1.7672939,1.7148613 0 0 0 -3.40705,-0.83091 c -1.80374,4.31367 -8.65428,10.90793 -14.10192,9.54665 -6.41327,-1.60879 -2.76936,-11.96867 -1.3118,-16.07019 a 2.2227821,2.1568358 0 0 0 -3.0791,-2.63417 c -1.73086,0.81323 -3.86254,1.55575 -5.22901,3.16454 -4.02651,4.72028 -9.67456,12.88797 -15.35905,13.71889 q -5.73916,0.84859 -12.68079,-4.66726 -1.94949,-1.55575 -3.13376,0.61877 -6.37684,11.73884 -17.32677,19.74742 a 2.6551638,2.7290299 62.519725 0 1 -1.78551,0.53037 c -10.69487,-0.53037 -10.2576,-11.98635 -9.36484,-19.28777 z m 3.53459,-61.3991 -3.37061,-1.5204 a 0.63768338,0.61876438 0 0 0 -0.85632,0.30055 l -0.9292,1.94468 a 2.3556068,29.508216 25.573844 0 0 -10.58554,27.5969 l 0.23685,0.10607 a 2.3556068,29.508216 25.573844 0 0 14.88535,-25.6522 l 0.9292,-1.94469 a 0.63768338,0.61876438 0 0 0 -0.30973,-0.83091 z m 31.37402,0.88394 -3.99008,-1.82093 a 0.49192718,0.47733252 0 0 0 -0.6559,0.22983 l -0.20041,0.40661 a 2.500362,31.715047 25.777537 0 0 -11.49652,29.59462 l 0.32795,0.15911 a 2.500362,31.715047 25.777537 0 0 16.0514,-27.52618 l 0.20041,-0.40661 a 0.49192718,0.47733252 0 0 0 -0.23685,-0.63645 z m 16.58924,46.4388 a 4.1092979,9.3179607 15.333714 0 0 6.41473,-7.98082 4.1092979,9.3179607 15.333714 0 0 -1.55084,-10.0086 4.1092979,9.3179607 15.333714 0 0 -6.41473,7.98082 4.1092979,9.3179607 15.333714 0 0 1.55084,10.0086 z m -97.963105,-1.34661 a 2.3632998,6.2669164 35.475495 0 0 5.58228,-3.81158 2.3632998,6.2669164 35.475495 0 0 1.643583,-6.42844 2.3632998,6.2669164 35.475495 0 0 -5.58228,3.81159 2.3632998,6.2669164 35.475495 0 0 -1.643583,6.42843 z m 83.942815,10.7734 a 3.4434903,3.3413277 0 0 0 3.88076,4.36671 l 2.69649,-0.47733 a 3.4434903,3.3413277 0 0 0 1.89483,-0.99003 l 5.99423,-6.24068 a 3.4434903,3.3413277 0 0 0 -0.45549,-4.95011 l -5.01037,-3.64187 a 3.4434903,3.3413277 0 0 0 -5.30188,1.5911 z"
     id="path9"
     style="stroke-width:1.79472" />
  <path
     fill="#ffdf5c"
     d="m 58.663633,423.87398 a 0.98385436,0.95466505 0 0 0 -1.821952,-0.47733 q -8.107689,12.85262 -17.855135,23.74287 c -4.755296,5.3037 -12.717228,-2.06844 -14.5574,-6.11693 q -1.54866,-3.37668 -0.200415,-8.80413 C 27.854416,417.5449 31.225028,405.1873 40.644523,391.4684 q 2.386758,-3.48275 5.247223,-0.37125 l 0.327952,0.37125 q 2.860465,3.11151 0.583024,6.62962 -10.075397,15.62822 -13.537107,33.94365 c -0.564805,3.02311 -1.621537,5.85174 -0.655903,9.03396 a 2.1316844,2.0684409 0 0 0 3.625686,0.79555 q 18.656794,-20.33083 32.21212,-44.23281 a 3.1519779,3.058464 0 0 1 4.22693,-1.23753 c 7.761518,3.96009 2.568953,9.35218 0.692342,14.16087 q -9.073323,23.28322 -18.201305,46.5134 -4.044735,10.32452 -12.69901,23.86662 c -8.836469,13.82497 -26.983116,0.58341 -18.711452,-13.24155 q 3.84432,-6.41747 10.294032,-11.5267 6.868761,-5.42745 2.31388,1.94469 c -3.224856,5.23298 -8.508519,12.72887 -8.708933,20.03029 a 2.878685,2.7932792 0 0 0 4.645978,2.26291 q 4.427345,-3.39437 6.92342,-8.36216 8.781811,-17.51987 15.759889,-35.78226 c 1.421123,-3.73027 3.807881,-7.81411 3.680344,-12.39297 z"
     id="path10"
     style="stroke-width:1.79472" />
  <path
     fill="#ffdf5c"
     d="m 304.95517,436.79732 c -4.02651,3.92473 -11.205,13.89568 -17.10813,14.10782 -6.19464,0.21215 -10.53089,-6.02853 -11.3872,-11.20847 -2.16813,-13.11781 23.81292,-59.79032 39.70034,-46.63716 q 4.90105,4.06617 4.02652,10.0947 c -0.72878,4.8794 -6.43149,13.06477 -12.69901,11.66813 a 0.85631768,0.83091217 0 0 1 -0.43727,-1.36128 q 6.03066,-6.27604 6.54081,-14.85035 0.0911,-1.3436 -0.49193,-1.52039 a 3.629768,3.7291757 80.669516 0 0 -3.69856,0.90163 q -17.30855,16.742 -25.36158,39.49485 -0.56481,1.60878 -0.29151,4.33135 0.0729,0.83091 0.81988,1.27288 3.22485,1.83862 5.976,-0.72483 11.98845,-11.26152 23.77648,-28.32173 0.56481,-0.83092 1.5851,-0.88395 4.59132,-0.21215 6.75944,3.67722 0.45549,0.81324 0.0911,1.67951 -9.10976,21.33853 -17.92801,42.74778 c -3.49815,8.48591 -9.36484,20.34851 -14.35699,25.72292 -5.11968,5.51584 -16.7984,1.94468 -17.98267,-5.86943 -1.38468,-9.05163 9.83854,-19.3408 17.23567,-23.70751 a 0.69234196,0.67180133 0 0 1 0.89276,0.99002 c -3.09732,3.74795 -15.3044,20.34851 -11.40542,24.92737 a 3.0527761,2.9602277 5.5896932 0 0 4.71885,-0.0177 c 10.60377,-12.72887 16.47045,-30.60232 21.88165,-45.98303 a 0.51538326,0.50748129 47.636863 0 0 -0.85632,-0.53037 z"
     id="path11"
     style="stroke-width:1.79472" />
  <path
     fill="#ffdf5c"
     d="m 431.16183,443.90427 0.16397,0.53037 q 0.40083,1.41431 1.22071,0.17679 7.79796,-11.75653 15.68701,-23.23019 3.69856,-5.39209 8.70893,-4.01313 1.00208,0.26519 1.494,1.14914 c 4.48201,8.06161 2.75115,11.19079 0.25508,19.25241 q -0.36439,1.16681 0.81988,0.74252 l 9.03688,-3.27061 q 1.53044,-0.56573 0.96564,0.9193 c -1.38469,3.69491 -9.01867,6.16997 -12.44394,8.22073 -6.03066,3.60651 -11.04103,9.88255 -16.17894,14.72659 q -1.62154,1.53807 -3.18842,-0.0707 l -2.42319,-2.45738 q -1.53044,-1.57343 0.21863,-2.91704 13.70109,-10.44827 19.54955,-26.41239 a 1.7672939,1.7148613 0 0 0 -2.18634,-2.20988 c -1.87661,0.58341 -4.26337,2.29827 -5.61161,3.99545 -15.37728,19.23474 -26.60051,34.4917 -27.69368,57.3683 a 2.9460992,3.0308993 84.358547 0 1 -5.77559,1.11378 c -5.61162,-11.57974 5.26544,-28.58692 6.79588,-40.39648 a 1.2408988,1.2179122 11.047149 0 0 -1.96771,-1.13145 l -6.50437,4.59653 a 1.9553167,2.0113741 81.269657 0 1 -1.71263,0.30054 q -5.39298,-1.41431 -5.93957,-6.94784 a 1.2571472,1.2198498 0 0 0 -2.1499,-0.72483 l -9.29196,9.29914 a 3.2943948,3.1854423 3.8577312 0 1 -3.00622,0.91931 c -4.39091,-0.83091 -5.17435,-5.26834 -4.02652,-8.91021 q 0.94742,-3.00543 0.49193,-4.18992 -2.05881,-5.39209 -5.59339,-0.76019 c -5.64806,7.44285 -19.20338,24.34395 -28.18561,9.14003 a 1.4940011,1.4496766 0 0 0 -2.44142,-0.21215 c -4.28158,4.98548 -11.25966,12.67583 -17.3632,15.18625 a 1.6397573,1.5911084 0 0 1 -1.74908,-0.28287 c -8.54496,-7.5666 -0.58302,-16.37073 1.78552,-23.95502 a 1.3832449,1.3273031 5.7973802 0 0 -0.80166,-1.60878 l -4.39091,-1.80326 a 2.7755958,2.8422504 89.784634 0 1 -1.60332,-1.60879 q -2.66005,-6.9832 3.86254,-10.0947 a 2.6964715,2.5988279 0.36725776 0 1 3.51637,3.64187 l -1.23893,2.01541 a 2.2956602,2.2275518 0 0 0 1.5851,3.32365 l 5.39298,0.93698 a 3.0960879,2.9889363 2.6024868 0 1 2.31388,4.10153 l -7.12383,16.52984 a 1.9312697,1.8739721 0 0 0 3.24307,1.96237 q 9.9843,-11.1024 17.50897,-23.10643 c 2.35031,-3.73026 5.26544,-5.85174 8.54495,-8.5743 3.31596,-2.7756 6.19464,-7.83179 11.05925,-10.32453 a 2.0838513,2.1520899 74.341495 0 1 1.73086,-0.14143 c 9.8932,3.28829 8.08947,10.4306 7.12383,18.43918 q -0.23685,1.85629 0.2733,2.24523 a 2.6036945,2.3871053 25.647975 0 0 3.71678,-0.49501 l 7.25137,-11.20848 q 1.56688,-2.40434 4.26337,-1.27289 l 1.00207,0.4243 q 2.62362,1.0961 1.23893,3.51812 -3.49815,6.18764 -7.08739,13.75425 -1.40291,2.95239 -0.80166,5.03851 a 2.1316844,2.0684409 0 0 0 3.68034,0.77787 q 6.88698,-7.95554 12.42572,-15.78733 2.31388,-3.25293 5.57517,-2.24523 a 2.5128197,2.4234421 3.4375216 0 1 1.62154,3.09382 l -4.31803,12.26921 a 1.457562,1.4143186 0 0 0 2.16813,1.64415 q 13.20915,-8.4152 15.15864,-23.67216 a 2.8422459,2.7579212 0 0 1 4.13583,-2.1038 l 0.76522,0.38894 q 3.58925,1.80326 2.29566,5.53352 l -5.79381,16.67128 q -0.36439,1.0961 -0.0546,2.1922 z m -62.11037,-8.62735 4.51845,1.59111 a 1.7308549,1.6795033 0 0 0 2.22278,-1.0077 l 1.03851,-2.79328 a 3.8849713,14.105465 20.549374 0 0 1.25715,-14.49677 l -0.43727,-0.15911 a 3.8849713,14.105465 20.549374 0 0 -8.59962,11.93332 l -1.03851,2.79328 a 1.7308549,1.6795033 0 0 0 1.03851,2.13915 z m -10.80417,11.08473 a 3.3159536,3.2175748 0 0 0 4.13583,4.20759 l 2.95156,-0.95466 a 3.3159536,3.2175748 0 0 0 1.54866,-1.04306 l 5.08325,-6.24068 a 3.3159536,3.2175748 0 0 0 -0.71056,-4.64958 l -4.0994,-2.72256 a 3.3159536,3.2175748 0 0 0 -4.95571,1.50272 z"
     id="path12"
     style="stroke-width:1.79472" />
</svg>
