<?xml version="1.0" encoding="utf-8"?>
<svg viewBox="0 0 500 500" xmlns="http://www.w3.org/2000/svg">
  <g stroke-width="2.00" fill="none" stroke-linecap="butt" transform="matrix(1.886919, 0, 0, 1.886919, -208.960114, -202.655777)" style="">
    <path stroke="#80702e" vector-effect="non-scaling-stroke" d=" M 204.79 215.34 Q 196.60 212.37 195.27 220.10"/>
    <path stroke="#80702e" vector-effect="non-scaling-stroke" d=" M 300.01 221.13 L 293.12 217.50"/>
    <path stroke="#80702e" vector-effect="non-scaling-stroke" d=" M 282.61 246.46 Q 281.79 244.81 280.35 244.69 Q 279.81 244.65 279.55 245.11 Q 277.19 249.25 276.57 254.02"/>
  </g>
  <path fill="#ffdf5c" d="M 177.461 203.673 C 167.158 199.938 161.171 202.932 159.498 212.656 C 157.447 214.027 155.635 213.556 154.064 211.24 C 147.327 201.335 139.723 188.276 131.552 181.294 C 116.307 168.256 99.116 167.634 79.87 166.2 C 72.944 165.69 66.228 163.105 62.567 157.84 C 45.321 133.109 28.106 108.352 10.922 83.572 C 8.091 79.495 6.507 75.83 6.167 72.57 C 4.694 58.833 16.79 46.776 27.584 39.418 C 40.239 30.799 52.938 22.234 65.681 13.718 C 75.077 7.434 79.248 3.867 89.474 7.397 C 94.72 9.208 98.714 11.968 101.457 15.68 C 121.671 43.153 139.019 67.665 153.498 89.214 C 159.876 98.699 161.096 108.597 157.158 118.913 C 149.007 140.292 148.8 156.35 160.008 176.654 C 165.574 186.729 173.706 194.691 177.461 203.673 Z M 88.82 24.853 C 87.556 23.081 85.09 22.668 83.32 23.935 L 83.227 24 C 81.453 25.265 81.042 27.728 82.306 29.501 L 136.698 105.755 C 137.963 107.53 140.426 107.94 142.199 106.677 L 142.291 106.611 C 144.064 105.346 144.476 102.885 143.212 101.11 L 88.82 24.853 Z M 123.478 125.914 C 125.191 126.238 126.852 125.131 127.212 123.423 C 127.728 120.856 127.193 118.39 125.609 116.026 C 107.174 88.458 86.53 65.551 68.152 35.454 C 66.906 33.403 65.403 32.228 63.642 31.926 C 60.88 31.443 58.632 34.133 59.596 36.764 C 59.638 36.878 59.685 36.988 59.736 37.097 C 62.944 43.7 66.736 50.185 71.115 56.55 C 83.927 75.25 97.455 93.477 110.004 112.328 C 113.005 116.856 117.796 124.858 123.478 125.914 Z M 52.339 74.306 C 66.327 97.115 82.335 119.191 100.362 140.538 C 102.174 142.688 104.141 142.839 106.267 140.989 L 106.815 140.5 C 108.157 139.345 108.402 137.36 107.381 135.914 C 93.758 116.454 80.374 97.294 67.228 78.438 C 60.227 68.382 54.452 56.985 43.604 47.946 C 42.639 47.151 41.199 47.35 40.489 48.381 C 38.981 50.55 39.339 53.664 40.849 56.003 C 44.749 62.054 48.578 68.155 52.339 74.306 Z M 30.16 55.29 C 30.043 54.487 28.802 54.001 27.39 54.207 C 25.978 54.413 24.927 55.232 25.043 56.037 C 25.163 56.841 26.403 57.327 27.816 57.121 C 29.227 56.914 30.277 56.094 30.16 55.29 Z M 79.718 151.897 L 83.946 148.991 C 84.87 148.36 85.105 147.1 84.475 146.18 L 49.114 94.742 C 36.991 77.104 25.668 63.83 23.81 65.078 L 22.942 65.684 C 21.118 66.982 29.45 82.305 41.566 99.93 L 76.907 151.368 C 77.537 152.292 78.796 152.529 79.718 151.897 Z" style=""/>
  <path fill="#ffdf5c" d="M 357.134 214.599 L 344.133 207.75 C 359.733 186.276 375.216 165.501 390.589 145.425 C 394.853 139.864 396.325 134.23 395.004 128.518 C 392.456 117.423 389.759 111.422 397.571 100.913 C 418.139 73.363 436.611 45.587 460.707 20.774 C 462.153 19.29 463.236 18.9 463.953 19.604 C 464.883 20.524 464.965 21.517 464.197 22.587 C 448.674 44.249 433.53 65.872 418.76 87.459 C 411.157 98.591 405.439 109.138 420.137 117.233 C 432.63 124.102 437.441 117.026 445.366 107.29 C 461.769 87.136 477.086 65.387 491.313 42.04 C 492.432 40.204 493.319 40.311 493.973 42.362 L 494.143 42.927 C 494.746 44.79 494.665 46.625 493.898 48.437 C 492.426 51.884 490.093 56.116 486.898 61.136 C 464.908 95.629 449.656 118.863 441.139 130.838 C 434.347 140.405 420.026 140.424 409.665 142.122 C 407.483 142.485 405.547 143.719 404.306 145.537 L 357.134 214.599 Z" style=""/>
  <path fill="#000000" d="M 309.621 149.954 C 304.663 152.394 299.413 153.739 293.865 153.991 C 292.72 154.042 292.634 153.759 293.601 153.142 C 297.545 150.575 302.13 148.707 305.357 145.99 C 312.313 140.128 317.036 132.745 319.527 123.838 C 319.805 122.807 320.093 122.807 320.396 123.838 C 322.232 130.306 321.326 136.336 317.678 141.933 C 317.263 142.589 317.433 142.996 318.187 143.16 C 333.623 146.313 348.058 138.065 349.775 123.178 C 352.568 98.968 332.15 90.063 311.809 92.345 C 309.394 92.611 307.3 92.68 305.527 92.553 C 304.796 92.503 304.45 92.114 304.489 91.383 C 306.074 60.946 283.979 44.493 255.222 46.457 C 234.937 47.833 219.709 59.74 215.068 79.232 C 212.519 89.949 213.086 103.573 220.672 112.479 C 220.723 112.529 220.723 112.578 220.672 112.63 L 220.314 112.931 C 220.213 113.032 220.107 113.032 219.993 112.931 C 213.011 106.856 209.224 99.175 208.634 89.893 C 208.562 88.782 207.6 87.945 206.5 88.043 C 193.18 89.087 184.946 95.232 181.801 106.478 C 175.726 128.085 194.331 138.085 212.709 138.047 C 213.326 138.047 213.747 138.33 213.973 138.895 C 218.22 149.727 218.69 158.01 218.483 168.369 C 218.47 169.187 218.86 169.489 219.653 169.275 C 244.541 162.237 277.771 160.972 298.941 178.257 C 301.583 180.422 301.28 180.969 298.035 179.898 C 270.26 170.765 236.578 170.898 209.048 183.428 C 208.023 183.878 206.897 183.052 207.018 181.939 C 207.025 181.882 207.034 181.824 207.048 181.767 C 209.742 170.582 209.742 159.419 207.048 148.274 C 206.911 147.694 206.544 147.355 205.953 147.256 C 187.632 144.33 173.953 137.046 172.14 116.272 C 170.253 94.458 185.801 80.684 206.388 79.174 C 207.054 79.124 207.601 78.834 208.028 78.307 C 209.388 76.61 209.011 73.891 209.425 72.23 C 213.979 54.329 225.319 42.965 243.446 38.134 C 248.027 36.914 255.089 36.479 264.637 36.831 C 287.923 37.675 303.589 48.499 311.639 69.306 C 312.904 72.57 313.755 77.137 314.848 81.061 C 315.003 81.628 315.523 82.017 316.112 82.005 C 335.491 81.761 356.642 90.346 359.076 111.912 C 361.78 135.664 352.039 149.09 329.849 152.198 C 326.471 152.67 321.81 151.897 317.829 152.181 C 316.923 152.242 316.39 152.728 316.226 153.632 L 312.394 175.596 C 312.343 175.819 312.071 175.915 311.911 175.771 C 311.87 175.734 311.842 175.687 311.828 175.634 C 309.564 167.368 309.137 159.042 310.546 150.652 C 310.697 149.807 310.389 149.576 309.621 149.954 Z" style=""/>
  <path fill="#000000" d="M 344.133 207.75 L 357.134 214.599 C 407.061 245.243 437.314 288.806 447.896 345.287 C 451.177 362.76 451.121 382.704 450.895 401.177 C 450.8 409.197 445.423 408.613 438.743 408.613 C 319.39 408.523 200.035 408.48 80.681 408.48 C 77.6 408.48 75.932 406.983 75.681 403.989 C 70.246 337.437 90.663 277.943 142.025 233.694 C 145.974 230.298 152.238 225.505 160.819 219.316 C 161.361 218.926 161.68 218.404 161.781 217.75 C 162.069 215.876 161.309 214.179 159.498 212.656 C 161.171 202.932 167.158 199.938 177.461 203.673 C 179.104 206.807 180.914 207.994 184.442 206.448 C 237.993 183.026 291.224 183.459 344.133 207.75 Z M 300.715 266.924 C 303.225 264.527 305.923 257.263 306.941 254.471 C 307.206 253.752 306.98 253.274 306.263 253.035 C 294.487 249.086 282.405 246.657 270.014 245.752 C 269.361 245.709 268.805 246.228 268.807 246.883 L 268.902 302.133 C 268.896 302.714 269.52 303.084 270.025 302.798 C 270.128 302.742 270.213 302.662 270.279 302.567 C 279.11 289.749 289.256 277.867 300.715 266.924 Z M 256.675 245.355 C 256.682 244.994 256.349 244.716 255.995 244.789 L 218.332 252.545 C 217.916 252.624 217.73 253.116 217.992 253.451 L 255.636 303.019 C 255.898 303.369 256.438 303.303 256.61 302.903 C 256.64 302.831 256.656 302.756 256.656 302.68 L 256.675 245.355 Z M 312.904 276.66 C 304.2 293.944 296.337 311.808 289.317 330.249 C 288.639 332.046 288.563 333.526 289.092 334.683 C 289.823 336.254 291.218 337.254 293.281 337.683 C 293.771 337.783 294.199 337.65 294.564 337.286 L 350.492 281.245 C 351.088 280.655 351.052 279.675 350.416 279.114 C 343.019 272.585 335.033 266.881 326.452 261.999 C 325.976 261.72 325.477 261.677 324.961 261.866 C 324.621 262.004 324.401 262.181 324.302 262.394 C 323.27 260.319 321.848 259.206 320.037 259.055 C 319.357 259.005 318.854 259.268 318.527 259.847 C 315.559 265.055 313.684 270.659 312.904 276.66 Z M 189.481 267.961 L 175.574 278.755 C 174.797 279.368 174.726 280.522 175.423 281.227 L 231.333 337.23 C 232.367 338.311 234.185 337.868 234.603 336.432 C 234.767 335.868 234.668 335.259 234.333 334.777 C 220.12 313.695 205.992 292.164 191.953 270.188 C 191.613 269.645 191.43 269.296 191.406 269.132 C 191.281 268.061 190.212 267.41 189.483 267.96 C 189.483 267.96 189.481 267.961 189.481 267.961 Z M 166.819 290.227 C 165.694 289.099 163.821 289.281 162.931 290.604 L 144.214 318.493 C 143.316 319.82 143.863 321.638 145.346 322.247 L 217.483 352.288 C 218.654 352.769 220.001 352.308 220.634 351.211 L 222.331 348.287 C 222.908 347.297 222.746 346.042 221.936 345.229 L 166.819 290.227 Z M 380.04 322.361 C 381.643 321.691 382.234 319.727 381.268 318.285 L 362.813 290.717 C 361.847 289.268 359.796 289.067 358.569 290.303 L 303.903 345.287 C 303.053 346.141 302.853 347.446 303.413 348.514 L 304.659 350.891 C 305.321 352.152 306.834 352.699 308.15 352.155 L 380.04 322.361 Z M 140.875 333.682 C 139.293 333.031 137.509 333.987 137.175 335.664 L 130.552 368.628 C 130.221 370.305 131.502 371.87 133.213 371.874 L 210.841 371.855 C 212.097 371.855 213.186 370.998 213.482 369.779 L 214.295 366.496 C 214.609 365.193 213.929 363.857 212.689 363.346 L 140.875 333.682 Z M 392.381 371.799 C 394.062 371.793 395.323 370.259 395.004 368.611 L 388.57 335.701 C 388.243 334.046 386.489 333.102 384.928 333.739 L 313.131 363.42 C 311.99 363.893 311.317 365.087 311.508 366.307 L 312.017 369.572 C 312.223 370.879 313.353 371.842 314.679 371.836 L 392.381 371.799 Z M 210.784 384.234 C 210.784 383.961 210.565 383.742 210.294 383.742 L 87.794 383.742 C 87.523 383.742 87.304 383.961 87.304 384.234 L 87.304 396.271 C 87.304 396.541 87.523 396.762 87.794 396.762 L 210.294 396.762 C 210.565 396.762 210.784 396.541 210.784 396.271 L 210.784 384.234 Z M 437.667 396.592 C 438.001 396.592 438.272 396.322 438.272 395.988 L 438.251 384.516 C 438.251 384.182 437.982 383.912 437.648 383.912 L 309.734 383.988 C 309.459 383.988 309.217 384.174 309.149 384.441 L 306.037 396.027 C 305.939 396.407 306.227 396.781 306.621 396.781 L 437.667 396.592 Z M 242.692 384.007 C 242.489 384.007 242.3 384.104 242.183 384.271 L 233.974 395.648 C 233.699 396.039 233.95 396.585 234.428 396.628 C 234.441 396.628 234.453 396.63 234.465 396.63 L 276.487 396.668 C 276.967 396.665 277.262 396.143 277.019 395.73 C 277.005 395.708 276.992 395.687 276.977 395.667 L 268.166 384.252 C 268.048 384.1 267.868 384.009 267.675 384.007 L 242.692 384.007 Z M 296.714 383.968 L 286.676 383.931 C 285.698 383.919 284.902 384.71 284.902 385.685 L 284.902 386.025 C 284.892 389.621 287.816 392.544 291.431 392.554 L 291.884 392.554 C 295.5 392.564 298.44 389.658 298.451 386.063 L 298.451 385.723 C 298.451 384.761 297.677 383.979 296.714 383.968 Z M 228.361 388.529 C 228.075 385.708 225.404 383.67 222.398 383.976 C 219.392 384.282 217.186 386.814 217.474 389.635 C 217.76 392.454 220.429 394.494 223.436 394.189 C 226.443 393.883 228.648 391.349 228.361 388.529 Z" style=""/>
  <path fill="#ffdf5c" d="M 324.302 262.394 C 321.748 267.967 317.949 272.722 312.904 276.66 C 313.684 270.659 315.559 265.055 318.527 259.847 C 318.854 259.268 319.357 259.005 320.037 259.055 C 321.848 259.206 323.27 260.319 324.302 262.394 Z" style=""/>
</svg>