<?xml version="1.0" encoding="utf-8"?>
<svg viewBox="0 0 500 500" xmlns="http://www.w3.org/2000/svg">
  <g stroke-width="2" fill="none" stroke-linecap="butt" id="g3" transform="matrix(1.821952, 0, 0, 1.767898, -202.198959, -136.486847)">
    <path stroke="#80702e" vector-effect="non-scaling-stroke" d="m 204.79,215.34 q -8.19,-2.97 -9.52,4.76" id="path1"/>
    <path stroke="#80702e" vector-effect="non-scaling-stroke" d="m 300.01,221.13 -6.89,-3.63" id="path2"/>
    <path stroke="#80702e" vector-effect="non-scaling-stroke" d="m 282.61,246.46 q -0.82,-1.65 -2.26,-1.77 -0.54,-0.04 -0.8,0.42 -2.36,4.14 -2.98,8.91" id="path3"/>
  </g>
  <path fill="#ffdf5c" d="M 170.918 244.213 C 160.97 240.712 155.188 243.517 153.573 252.628 C 151.593 253.913 149.844 253.471 148.326 251.302 C 141.821 242.02 134.479 229.787 126.59 223.245 C 111.869 211.029 95.271 210.446 76.687 209.102 C 70 208.625 63.514 206.203 59.979 201.27 C 43.327 178.099 26.704 154.904 10.112 131.686 C 7.38 127.867 5.849 124.432 5.521 121.379 C 4.1 108.509 15.779 97.212 26.2 90.317 C 38.42 82.244 50.681 74.217 62.986 66.238 C 72.059 60.351 76.085 57.01 85.96 60.316 C 91.025 62.013 94.882 64.6 97.53 68.077 C 117.049 93.818 133.799 116.783 147.779 136.972 C 153.937 145.859 155.116 155.134 151.314 164.799 C 143.443 184.829 143.243 199.874 154.065 218.896 C 159.44 228.337 167.292 235.797 170.918 244.213 Z M 85.328 76.674 C 84.107 75.012 81.729 74.626 80.017 75.811 L 79.928 75.873 C 78.216 77.058 77.818 79.365 79.039 81.026 L 131.559 152.472 C 132.78 154.133 135.158 154.519 136.87 153.334 L 136.959 153.273 C 138.671 152.088 139.069 149.78 137.848 148.119 L 85.328 76.674 Z M 118.792 171.358 C 120.449 171.662 122.052 170.625 122.399 169.024 C 122.897 166.62 122.381 164.31 120.851 162.094 C 103.05 136.265 83.118 114.803 65.372 86.605 C 64.17 84.683 62.718 83.581 61.018 83.299 C 58.351 82.847 56.181 85.366 57.111 87.833 C 57.151 87.938 57.196 88.041 57.246 88.143 C 60.344 94.33 64.006 100.406 68.233 106.37 C 80.604 123.89 93.667 140.967 105.783 158.629 C 108.68 162.872 113.308 170.368 118.792 171.358 Z M 50.104 123.006 C 63.611 144.374 79.067 165.058 96.473 185.059 C 98.222 187.074 100.123 187.216 102.176 185.483 L 102.704 185.023 C 104 183.942 104.237 182.082 103.251 180.727 C 90.096 162.495 77.172 144.544 64.48 126.877 C 57.72 117.454 52.145 106.776 41.669 98.308 C 40.738 97.562 39.348 97.75 38.662 98.715 C 37.205 100.748 37.551 103.665 39.009 105.857 C 42.774 111.526 46.473 117.242 50.104 123.006 Z M 28.689 105.189 C 28.575 104.435 27.377 103.981 26.013 104.174 C 24.649 104.367 23.635 105.135 23.749 105.888 C 23.862 106.642 25.06 107.096 26.424 106.903 C 27.788 106.71 28.802 105.943 28.689 105.189 Z M 76.541 195.702 L 80.622 192.979 C 81.514 192.389 81.743 191.208 81.132 190.345 L 46.989 142.152 C 35.285 125.629 24.351 113.191 22.556 114.361 L 21.718 114.926 C 19.959 116.143 28.004 130.5 39.701 147.014 L 73.826 195.207 C 74.434 196.072 75.651 196.294 76.541 195.702 Z" id="path4" style="stroke-width:1.79472"/>
  <path fill="#ffdf5c" d="M 344.404 254.449 L 331.851 248.031 C 346.913 227.913 361.865 208.448 376.708 189.638 C 380.825 184.428 382.246 179.148 380.971 173.797 C 378.511 163.402 375.906 157.78 383.449 147.933 C 403.308 122.122 421.145 96.098 444.411 72.85 C 445.808 71.46 446.853 71.094 447.545 71.754 C 448.444 72.615 448.523 73.546 447.782 74.547 C 432.793 94.843 418.169 115.103 403.909 135.328 C 396.567 145.758 391.046 155.641 405.239 163.225 C 417.301 169.66 421.947 163.031 429.599 153.908 C 445.438 135.027 460.226 114.649 473.963 92.775 C 475.044 91.054 475.901 91.154 476.532 93.075 L 476.696 93.605 C 477.279 95.35 477.2 97.071 476.459 98.768 C 475.038 101.997 472.785 105.963 469.7 110.666 C 448.468 142.983 433.741 164.752 425.518 175.972 C 418.959 184.935 405.13 184.953 395.127 186.544 C 393.02 186.884 391.151 188.04 389.953 189.744 L 344.404 254.449 Z" id="path5" style="stroke-width:1.79472"/>
  <path fill="#000000" d="M 298.528 193.881 C 293.742 196.167 288.671 197.428 283.314 197.664 C 282.209 197.711 282.124 197.446 283.059 196.868 C 286.867 194.464 291.294 192.714 294.41 190.168 C 301.127 184.676 305.688 177.757 308.093 169.413 C 308.36 168.446 308.639 168.446 308.931 169.413 C 310.704 175.471 309.83 181.122 306.307 186.367 C 305.906 186.98 306.07 187.363 306.799 187.516 C 321.703 190.469 335.641 182.743 337.299 168.794 C 339.995 146.112 320.282 137.768 300.641 139.907 C 298.309 140.154 296.287 140.219 294.574 140.101 C 293.869 140.054 293.535 139.689 293.572 139.005 C 295.102 110.489 273.767 95.073 246.001 96.911 C 226.415 98.202 211.712 109.357 207.23 127.62 C 204.77 137.661 205.316 150.426 212.641 158.77 C 212.689 158.817 212.689 158.864 212.641 158.912 L 212.295 159.194 C 212.197 159.289 212.094 159.289 211.985 159.194 C 205.244 153.502 201.588 146.306 201.017 137.608 C 200.948 136.568 200.018 135.785 198.958 135.876 C 186.095 136.854 178.145 142.612 175.109 153.148 C 169.242 173.391 187.206 182.761 204.952 182.725 C 205.547 182.725 205.954 182.99 206.173 183.521 C 210.272 193.668 210.728 201.43 210.527 211.135 C 210.515 211.901 210.892 212.184 211.657 211.984 C 235.688 205.39 267.773 204.205 288.215 220.399 C 290.766 222.426 290.475 222.939 287.341 221.937 C 260.522 213.381 228 213.504 201.418 225.243 C 200.429 225.665 199.34 224.891 199.458 223.849 C 199.464 223.795 199.473 223.741 199.486 223.687 C 202.086 213.21 202.086 202.75 199.486 192.307 C 199.353 191.765 199 191.447 198.429 191.353 C 180.738 188.612 167.529 181.788 165.78 162.324 C 163.958 141.887 178.971 128.981 198.849 127.567 C 199.492 127.52 200.021 127.249 200.434 126.754 C 201.745 125.162 201.381 122.617 201.782 121.061 C 206.179 104.289 217.129 93.641 234.632 89.115 C 239.053 87.972 245.873 87.565 255.092 87.895 C 277.575 88.685 292.703 98.827 300.477 118.321 C 301.698 121.379 302.518 125.657 303.574 129.335 C 303.725 129.866 304.228 130.23 304.795 130.219 C 323.507 129.989 343.931 138.033 346.281 158.24 C 348.892 180.492 339.485 193.073 318.059 195.984 C 314.798 196.426 310.297 195.702 306.453 195.967 C 305.579 196.026 305.062 196.479 304.904 197.328 L 301.206 217.906 C 301.154 218.115 300.894 218.205 300.738 218.069 C 300.699 218.035 300.672 217.991 300.659 217.942 C 298.473 210.198 298.06 202.396 299.42 194.535 C 299.566 193.745 299.269 193.527 298.528 193.881 Z" id="path6" style="fill:#000000;stroke:#ffffff;stroke-width:3.58944;stroke-dasharray:none"/>
  <path fill="#000000" d="M 331.851 248.031 L 344.404 254.449 C 392.613 283.159 421.825 323.974 432.04 376.893 C 435.21 393.264 435.156 411.951 434.937 429.259 C 434.846 436.772 429.653 436.224 423.204 436.224 C 307.959 436.142 192.715 436.1 77.47 436.1 C 74.494 436.1 72.885 434.698 72.642 431.893 C 67.395 369.539 87.108 313.797 136.702 272.34 C 140.516 269.158 146.565 264.667 154.848 258.869 C 155.371 258.503 155.68 258.014 155.778 257.401 C 156.057 255.645 155.322 254.054 153.573 252.628 C 155.188 243.517 160.97 240.712 170.918 244.213 C 172.503 247.147 174.252 248.261 177.659 246.812 C 229.366 224.866 280.764 225.273 331.851 248.031 Z M 289.928 303.473 C 292.351 301.227 294.957 294.421 295.94 291.805 C 296.195 291.133 295.977 290.685 295.284 290.461 C 283.916 286.76 272.249 284.485 260.285 283.637 C 259.653 283.596 259.117 284.083 259.119 284.698 L 259.21 336.462 C 259.204 337.006 259.808 337.352 260.297 337.085 C 260.394 337.031 260.477 336.957 260.54 336.868 C 269.067 324.858 278.863 313.726 289.928 303.473 Z M 247.404 283.266 C 247.411 282.926 247.091 282.667 246.748 282.735 L 210.382 290.001 C 209.979 290.075 209.801 290.537 210.054 290.85 L 246.402 337.293 C 246.654 337.619 247.176 337.558 247.341 337.183 C 247.37 337.117 247.385 337.046 247.385 336.974 L 247.404 283.266 Z M 301.698 312.595 C 293.292 328.789 285.701 345.525 278.923 362.803 C 278.267 364.489 278.195 365.874 278.705 366.958 C 279.409 368.431 280.757 369.368 282.749 369.769 C 283.223 369.863 283.636 369.739 283.988 369.398 L 337.991 316.891 C 338.566 316.337 338.533 315.421 337.918 314.893 C 330.776 308.776 323.063 303.431 314.779 298.858 C 314.318 298.599 313.838 298.558 313.34 298.735 C 313.012 298.864 312.8 299.029 312.702 299.23 C 311.706 297.285 310.334 296.242 308.585 296.101 C 307.929 296.053 307.443 296.301 307.127 296.843 C 304.261 301.722 302.451 306.973 301.698 312.595 Z M 182.524 304.445 L 169.096 314.557 C 168.345 315.133 168.277 316.214 168.95 316.873 L 222.935 369.345 C 223.933 370.358 225.687 369.942 226.092 368.597 C 226.252 368.068 226.156 367.498 225.832 367.046 C 212.106 347.293 198.466 327.121 184.911 306.531 C 184.583 306.024 184.407 305.694 184.382 305.541 C 184.262 304.538 183.231 303.929 182.526 304.443 C 182.525 304.444 182.525 304.444 182.524 304.445 Z M 160.642 325.306 C 159.555 324.251 157.746 324.422 156.889 325.66 L 138.815 351.789 C 137.948 353.033 138.477 354.736 139.908 355.307 L 209.562 383.452 C 210.693 383.903 211.993 383.473 212.604 382.445 L 214.244 379.704 C 214.8 378.776 214.643 377.601 213.861 376.84 L 160.642 325.306 Z M 366.523 355.413 C 368.069 354.787 368.64 352.946 367.707 351.595 L 349.888 325.766 C 348.956 324.408 346.975 324.22 345.789 325.377 L 293.007 376.893 C 292.185 377.692 291.993 378.917 292.533 379.917 L 293.736 382.144 C 294.375 383.325 295.836 383.838 297.106 383.329 L 366.523 355.413 Z M 135.59 366.021 C 134.063 365.411 132.342 366.306 132.019 367.877 L 125.624 398.762 C 125.303 400.335 126.541 401.8 128.193 401.803 L 203.148 401.785 C 204.359 401.786 205.413 400.982 205.699 399.841 L 206.483 396.765 C 206.787 395.545 206.13 394.291 204.934 393.812 L 135.59 366.021 Z M 378.438 401.732 C 380.062 401.728 381.28 400.291 380.971 398.745 L 374.758 367.913 C 374.443 366.363 372.749 365.477 371.242 366.074 L 301.916 393.883 C 300.814 394.326 300.166 395.443 300.35 396.588 L 300.841 399.646 C 301.04 400.872 302.131 401.774 303.41 401.768 L 378.438 401.732 Z M 203.094 413.383 C 203.094 413.129 202.882 412.923 202.62 412.923 L 84.339 412.923 C 84.077 412.923 83.865 413.129 83.865 413.383 L 83.865 424.662 C 83.865 424.916 84.077 425.122 84.339 425.122 L 202.62 425.122 C 202.882 425.122 203.094 424.916 203.094 424.662 L 203.094 413.383 Z M 422.165 424.963 C 422.487 424.963 422.748 424.709 422.748 424.397 L 422.73 413.648 C 422.73 413.336 422.469 413.082 422.147 413.082 L 298.637 413.153 C 298.371 413.153 298.139 413.327 298.072 413.577 L 295.066 424.432 C 294.971 424.79 295.249 425.14 295.631 425.139 L 422.165 424.963 Z M 233.903 413.171 C 233.707 413.171 233.524 413.263 233.411 413.418 L 225.485 424.079 C 225.219 424.446 225.462 424.955 225.923 424.996 C 225.935 424.997 225.947 424.998 225.959 424.998 L 266.534 425.033 C 266.997 425.03 267.282 424.542 267.048 424.154 C 267.036 424.134 267.022 424.115 267.008 424.096 L 258.499 413.401 C 258.387 413.257 258.212 413.172 258.026 413.171 L 233.903 413.171 Z M 286.065 413.135 L 276.373 413.1 C 275.43 413.09 274.66 413.829 274.66 414.744 L 274.66 415.062 C 274.65 418.431 277.472 421.169 280.964 421.179 L 281.401 421.179 C 284.893 421.189 287.732 418.466 287.742 415.098 L 287.742 414.779 C 287.742 413.878 286.994 413.145 286.065 413.135 Z M 220.066 417.408 C 219.789 414.766 217.211 412.856 214.308 413.142 C 211.405 413.428 209.276 415.802 209.552 418.445 C 209.829 421.087 212.407 422.997 215.31 422.71 C 218.213 422.424 220.342 420.05 220.066 417.408 Z" id="path7" style="fill:#000000;stroke:#ffffff;stroke-width:3.58944;stroke-dasharray:none"/>
  <path fill="#ffdf5c" d="M 312.702 299.23 C 310.237 304.451 306.568 308.906 301.698 312.595 C 302.451 306.973 304.261 301.722 307.127 296.843 C 307.443 296.301 307.929 296.053 308.585 296.101 C 310.334 296.242 311.706 297.285 312.702 299.23 Z" id="path8" style="stroke-width:1.79472"/>
</svg>